# This file uses centimeters as units for non-parametric coordinates.

mtllib MidRock1Unity.mtl
g default
v 4.169654 0.059728 7.560731
v 3.895605 0.020085 7.298221
v 3.584847 0.123773 7.154927
v 3.193869 0.149614 7.369370
v 2.919729 0.195806 7.573785
v 3.067812 0.136739 7.999913
v 3.527082 0.091246 8.144178
v 3.772617 0.181391 8.054289
v 4.068079 0.156801 7.927099
v 4.173027 0.632858 7.739151
v 3.941073 0.757498 7.391901
v 3.639583 0.544402 7.111983
v 3.190186 0.750071 7.342064
v 2.911589 0.784474 7.712091
v 2.907432 0.643134 7.978166
v 3.257729 0.660983 8.223047
v 3.859409 0.674302 8.284126
v 3.951172 0.482436 7.937836
v 4.112007 0.002312 7.429369
v 3.708787 0.052313 7.163393
v 3.416482 0.080937 7.233132
v 3.052577 0.141871 7.457406
v 2.981050 0.126146 7.778919
v 3.315594 0.079623 8.113844
v 3.653635 0.105102 8.112136
v 3.950624 0.165749 8.000533
v 4.147678 0.057053 7.739646
v 4.207462 0.272400 7.575948
v 3.995615 0.495715 7.270059
v 4.072120 0.741410 7.542593
v 3.625014 0.254653 7.081477
v 3.821683 0.696506 7.237014
v 3.162235 0.456646 7.322079
v 3.401903 0.678580 7.233044
v 2.865021 0.558804 7.613976
v 3.023374 0.813325 7.522113
v 2.933572 0.415712 8.026968
v 2.877045 0.772524 7.863848
v 3.383724 0.299857 8.267332
v 3.014941 0.692414 8.121285
v 3.791775 0.478603 8.242743
v 3.636471 0.678959 8.313101
v 4.016062 0.305080 7.974806
v 3.921882 0.630483 8.152596
v 4.087386 0.577152 7.847298
v 4.007096 0.722738 8.107293
v 3.786323 0.717490 7.994712
v 3.690537 0.785798 7.717602
v 3.478765 0.680969 7.583394
v 3.221855 0.778157 7.691004
v 3.020705 0.799894 7.927074
v 4.035729 0.063472 7.687768
v 3.855015 0.053870 7.738896
v 3.688802 0.009774 7.819789
v 3.407635 0.021694 7.694116
v 3.322855 0.043045 7.457557
v 3.453607 0.029494 7.337438
v 4.119272 0.348943 7.458800
v 3.816262 0.317703 7.123438
v 3.381541 0.348467 7.206331
v 3.014038 0.493638 7.415819
v 2.859256 0.451324 7.808187
v 3.105941 0.369664 8.181295
v 3.530370 0.394921 8.216981
v 3.863762 0.360513 8.040575
v 4.092340 0.243919 7.716408
v 4.029547 0.682656 8.045454
v 3.801218 0.721437 8.173858
v 3.850089 0.775031 7.768025
v 3.649741 0.739108 7.523561
v 3.372378 0.719043 7.506437
v 3.084816 0.824725 7.730129
v 2.967752 0.792084 8.003517
v 4.108934 0.003236 7.593312
v 3.951291 0.090192 7.802022
v 3.759365 0.033919 7.865623
v 3.488932 0.013536 7.866989
v 3.243500 0.043019 7.617437
v 3.277308 0.049071 7.414904
v 3.537585 0.020532 7.250411
v 4.156762 0.175514 7.462354
v 4.094152 0.542965 7.409989
v 3.746117 0.194248 7.098755
v 3.893803 0.507042 7.165526
v 3.453813 0.222872 7.168495
v 3.324136 0.515600 7.218141
v 3.039298 0.352455 7.407613
v 2.960268 0.631853 7.479650
v 2.888426 0.313763 7.883534
v 2.843205 0.599212 7.753038
v 3.244870 0.245602 8.225024
v 3.012974 0.506635 8.134013
v 3.515302 0.265985 8.223660
v 3.628962 0.526129 8.282217
v 3.935557 0.283478 8.031652
v 3.857290 0.487348 8.153813
v 4.093200 0.196522 7.822944
v 4.141028 0.368800 7.691985
vt 0.816465 0.622625
vt 0.803322 0.626563
vt 0.824708 0.589663
vt 0.823276 0.597625
vt 0.834922 0.563830
vt 0.853595 0.560254
vt 0.880980 0.542310
vt 0.803080 0.576088
vt 0.819275 0.566736
vt 0.782311 0.517616
vt 0.817127 0.545347
vt 0.780896 0.622881
vt 0.764019 0.620904
vt 0.774054 0.584344
vt 0.787017 0.593941
vt 0.746720 0.623172
vt 0.721433 0.623842
vt 0.747910 0.577330
vt 0.756021 0.593113
vt 0.715458 0.596285
vt 0.710645 0.574480
vt 0.737630 0.551309
vt 0.734614 0.575021
vt 0.712787 0.551766
vt 0.714126 0.531585
vt 0.737855 0.520664
vt 0.729338 0.539797
vt 0.720845 0.518135
vt 0.722257 0.500050
vt 0.754017 0.502283
vt 0.737120 0.512027
vt 0.910697 0.492724
vt 0.892759 0.505682
vt 0.904996 0.480832
vt 0.918414 0.478522
vt 0.737370 0.691176
vt 0.771828 0.696105
vt 0.791818 0.689938
vt 0.879426 0.506371
vt 0.861266 0.504599
vt 0.886568 0.473938
vt 0.890925 0.486316
vt 0.849194 0.494415
vt 0.838142 0.488902
vt 0.867869 0.469816
vt 0.870864 0.478681
vt 0.822351 0.476221
vt 0.801420 0.459142
vt 0.847937 0.442916
vt 0.848166 0.462748
vt 0.799623 0.437021
vt 0.794502 0.413402
vt 0.849197 0.417325
vt 0.833947 0.429502
vt 0.647837 0.576675
vt 0.654719 0.600287
vt 0.868307 0.413336
vt 0.846154 0.411734
vt 0.669405 0.637183
vt 0.692122 0.655236
vt 0.708000 0.673864
vt 0.881149 0.410092
vt 0.777460 0.662170
vt 0.779637 0.678794
vt 0.794104 0.667081
vt 0.755024 0.646751
vt 0.772033 0.643586
vt 0.704809 0.646031
vt 0.726538 0.653488
vt 0.714018 0.658958
vt 0.741382 0.640962
vt 0.687715 0.616292
vt 0.686136 0.633108
vt 0.683594 0.584690
vt 0.698128 0.600248
vt 0.681998 0.564973
vt 0.669190 0.571823
vt 0.688641 0.535910
vt 0.694426 0.553035
vt 0.770369 0.469097
vt 0.683046 0.513069
vt 0.775916 0.449540
vt 0.697682 0.521728
vt 0.814834 0.500587
vt 0.787657 0.485843
vt 0.806820 0.487619
vt 0.769888 0.487376
vt 0.824456 0.516232
vt 0.828224 0.504026
vt 0.842971 0.539698
vt 0.825149 0.533300
vt 0.884806 0.521291
vt 0.866743 0.527113
vt 0.875031 0.518675
vt 0.854000 0.542200
vt 0.815511 0.665026
vt 0.903683 0.509265
vt 0.807201 0.652913
vt 0.915670 0.514662
vt 0.836532 0.622632
vt 0.927111 0.483624
vt 0.759037 0.445720
vt 0.649536 0.550369
vt 0.746499 0.479025
vt 0.836958 0.586251
vt 0.816845 0.406720
vt 0.837117 0.399743
vt 0.869282 0.400370
vt 0.891086 0.398212
vt 0.902652 0.410356
vt 0.915707 0.434788
vt 0.928191 0.463336
vn 0.760167 -0.321246 0.564754
vn 0.791389 0.591119 0.155827
vn 0.251424 0.967828 0.009711
vn 0.758229 -0.452563 0.469336
vn 0.397991 0.360552 0.843567
vn 0.772215 -0.424408 0.472823
vn 0.812309 -0.235433 0.533596
vn 0.042933 0.992263 0.116491
vn -0.020497 0.997028 0.074261
vn -0.116220 0.736574 0.666297
vn -0.134373 0.711714 0.689497
vn 0.622280 0.775633 -0.105645
vn 0.255498 0.897449 -0.359592
vn -0.163434 0.986393 0.017832
vn 0.194426 0.959665 0.203079
vn -0.032424 0.810673 -0.584600
vn -0.126661 0.553490 -0.823168
vn -0.036770 0.995458 -0.087815
vn -0.337704 0.906798 -0.252336
vn 0.064013 0.789284 -0.610683
vn -0.164678 0.782544 -0.600421
vn 0.345968 0.934912 0.079031
vn 0.367546 0.929822 -0.018462
vn -0.353866 0.830954 -0.429296
vn -0.683070 0.703877 -0.194866
vn 0.151920 0.967668 0.201343
vn 0.163138 0.983501 0.078174
vn -0.858287 0.489337 0.154573
vn -0.899615 0.065570 0.431732
vn -0.454937 0.424012 0.783101
vn -0.395630 0.769422 0.501464
vn 0.760974 -0.486040 0.429748
vn 0.634677 -0.542350 0.550492
vn -0.053846 -0.974481 0.217915
vn -0.034050 -0.985530 0.166044
vn 0.395937 -0.788894 -0.469979
vn 0.401409 -0.685412 -0.607520
vn 0.965063 -0.259905 0.033211
vn 0.227222 -0.723061 0.652344
vn 0.441221 -0.537980 0.718263
vn 0.218724 -0.958356 0.183609
vn 0.097163 -0.953306 0.285949
vn 0.445892 -0.577893 0.683535
vn 0.074348 -0.816119 0.573081
vn 0.062733 -0.995489 0.071178
vn 0.431965 -0.846738 0.310550
vn -0.240171 -0.872596 0.425317
vn -0.486125 -0.790851 0.371804
vn -0.113590 -0.993516 0.004902
vn -0.093305 -0.991466 0.091049
vn -0.571449 -0.815200 0.094317
vn -0.796370 -0.526148 -0.298268
vn -0.135882 -0.989405 -0.051122
vn -0.238312 -0.970424 -0.038530
vn -0.594658 -0.557308 -0.579474
vn -0.496561 -0.332115 -0.801952
vn -0.175986 -0.978075 -0.111345
vn -0.318167 -0.909156 -0.268711
vn -0.506906 -0.500322 -0.701943
vn -0.256429 -0.452506 -0.854097
vn 0.208244 -0.760548 -0.614980
vn -0.122041 -0.934399 -0.334671
vn 0.819471 0.039030 -0.571790
vn 0.715693 0.047718 -0.696783
vn 0.997505 0.054797 -0.044513
vn 0.750096 0.036788 -0.660305
vn 0.855739 0.147073 -0.496066
vn -0.183959 -0.026009 -0.982590
vn 0.524844 -0.059786 -0.849096
vn 0.343912 -0.240944 -0.907563
vn 0.553637 0.144462 -0.820132
vn -0.472295 -0.040772 -0.880497
vn -0.476158 -0.094970 -0.874216
vn -0.513270 -0.031613 -0.857645
vn -0.437074 0.053913 -0.897808
vn -0.686794 0.034917 -0.726013
vn -0.600169 -0.138102 -0.787861
vn -0.927489 0.042254 -0.371456
vn -0.754594 0.199897 -0.625003
vn -0.824709 -0.230953 0.516252
vn -0.984994 -0.143227 0.096293
vn -0.895999 -0.356698 0.264485
vn -0.998959 0.045061 -0.007045
vn -0.032586 -0.125652 0.991539
vn -0.489802 -0.204981 0.847394
vn -0.350891 -0.347280 0.869639
vn -0.601742 -0.052383 0.796971
vn 0.099419 -0.213949 0.971772
vn 0.361710 -0.109783 0.925804
vn 0.333690 -0.443121 0.832042
vn -0.059210 -0.334895 0.940393
vn 0.821596 0.288847 0.491476
vn 0.728849 -0.217959 0.649055
vn 0.383686 0.045233 0.922355
vn 0.814028 -0.361500 0.454616
vn 0.894164 0.036404 0.446258
vn 0.929336 0.307417 0.204523
vn 0.756722 -0.217804 0.616387
s 1
g bolder3 bolderGroup1
usemtl blinn4SG
f 45/1/1 10/2/2 46/3/3 67/4/4
f 46/3/3 17/5/5 44/105/6 67/4/4
f 44/105/6 18/100/7 45/1/1 67/4/4
f 46/3/3 10/2/2 47/8/8 68/9/9
f 47/8/8 16/10/10 42/11/11 68/9/9
f 42/11/11 17/5/5 46/3/3 68/9/9
f 30/12/12 11/13/13 48/14/14 69/15/15
f 48/14/14 16/10/10 47/8/8 69/15/15
f 47/8/8 10/2/2 30/12/12 69/15/15
f 32/16/16 12/17/17 49/18/18 70/19/19
f 49/18/18 16/10/10 48/14/14 70/19/19
f 48/14/14 11/13/13 32/16/16 70/19/19
f 34/20/20 13/21/21 50/22/22 71/23/23
f 50/22/22 16/10/10 49/18/18 71/23/23
f 49/18/18 12/17/17 34/20/20 71/23/23
f 36/24/24 14/25/25 51/26/26 72/27/27
f 51/26/26 16/10/10 50/22/22 72/27/27
f 50/22/22 13/21/21 36/24/24 72/27/27
f 38/28/28 15/29/29 40/30/30 73/31/31
f 40/30/30 16/10/10 51/26/26 73/31/31
f 51/26/26 14/25/25 38/28/28 73/31/31
f 27/32/32 9/33/33 52/34/34 74/35/35
f 52/34/34 2/111/36 19/112/37 74/35/35
f 19/112/37 1/101/38 27/32/32 74/35/35
f 26/39/39 8/40/40 53/41/41 75/42/42
f 53/41/41 2/111/36 52/34/34 75/42/42
f 52/34/34 9/33/33 26/39/39 75/42/42
f 25/43/43 7/44/44 54/45/45 76/46/46
f 54/45/45 2/111/36 53/41/41 76/46/46
f 53/41/41 8/40/40 25/43/43 76/46/46
f 24/47/47 6/48/48 55/49/49 77/50/50
f 55/49/49 2/111/36 54/45/45 77/50/50
f 54/45/45 7/44/44 24/47/47 77/50/50
f 23/51/51 5/52/52 56/53/53 78/54/54
f 56/53/53 2/111/36 55/49/49 78/54/54
f 55/49/49 6/48/48 23/51/51 78/54/54
f 22/106/55 4/107/56 57/57/57 79/58/58
f 57/57/57 2/111/36 56/53/53 79/58/58
f 56/53/53 5/52/52 22/106/55 79/58/58
f 21/108/59 3/109/60 20/110/61 80/62/62
f 20/110/61 2/111/36 57/57/57 80/62/62
f 57/57/57 4/107/56 21/108/59 80/62/62
f 19/37/37 2/36/36 58/63/63 81/64/64
f 58/63/63 10/2/2 28/65/65 81/64/64
f 28/65/65 1/38/38 19/37/37 81/64/64
f 58/63/63 2/36/36 29/66/66 82/67/67
f 29/66/66 11/13/13 30/12/12 82/67/67
f 30/12/12 10/2/2 58/63/63 82/67/67
f 31/68/68 12/17/17 59/69/69 83/70/70
f 59/69/69 2/36/36 20/61/61 83/70/70
f 20/61/61 3/60/60 31/68/68 83/70/70
f 59/69/69 12/17/17 32/16/16 84/71/71
f 32/16/16 11/13/13 29/66/66 84/71/71
f 29/66/66 2/36/36 59/69/69 84/71/71
f 21/59/59 4/56/56 60/72/72 85/73/73
f 60/72/72 12/17/17 31/68/68 85/73/73
f 31/68/68 3/60/60 21/59/59 85/73/73
f 60/72/72 4/56/56 33/74/74 86/75/75
f 33/74/74 13/21/21 34/20/20 86/75/75
f 34/20/20 12/17/17 60/72/72 86/75/75
f 22/55/55 5/103/52 61/76/76 87/77/77
f 61/76/76 13/21/21 33/74/74 87/77/77
f 33/74/74 4/56/56 22/55/55 87/77/77
f 61/76/76 5/103/52 35/78/78 88/79/79
f 35/78/78 14/25/25 36/24/24 88/79/79
f 36/24/24 13/21/21 61/76/76 88/79/79
f 37/80/80 15/104/29 62/102/81 89/82/82
f 62/102/81 5/52/52 23/51/51 89/82/82
f 23/51/51 6/48/48 37/80/80 89/82/82
f 62/81/81 15/29/29 38/28/28 90/83/83
f 38/28/28 14/25/25 35/78/78 90/83/83
f 35/78/78 5/103/52 62/81/81 90/83/83
f 39/84/84 16/10/10 63/85/85 91/86/86
f 63/85/85 6/48/48 24/47/47 91/86/86
f 24/47/47 7/44/44 39/84/84 91/86/86
f 63/85/85 16/10/10 40/30/30 92/87/87
f 40/30/30 15/104/29 37/80/80 92/87/87
f 37/80/80 6/48/48 63/85/85 92/87/87
f 25/43/43 8/40/40 64/88/88 93/89/89
f 64/88/88 16/10/10 39/84/84 93/89/89
f 39/84/84 7/44/44 25/43/43 93/89/89
f 64/88/88 8/40/40 41/90/90 94/91/91
f 41/90/90 17/5/5 42/11/11 94/91/91
f 42/11/11 16/10/10 64/88/88 94/91/91
f 43/92/92 18/7/7 65/93/93 95/94/94
f 65/93/93 8/40/40 26/39/39 95/94/94
f 26/39/39 9/33/33 43/92/92 95/94/94
f 65/93/93 18/7/7 44/6/6 96/95/95
f 44/6/6 17/5/5 41/90/90 96/95/95
f 41/90/90 8/40/40 65/93/93 96/95/95
f 27/32/32 1/101/38 66/99/96 97/97/97
f 66/99/96 18/7/7 43/92/92 97/97/97
f 43/92/92 9/33/33 27/32/32 97/97/97
f 66/96/96 1/38/38 28/65/65 98/98/98
f 28/65/65 10/2/2 45/1/1 98/98/98
f 45/1/1 18/100/7 66/96/96 98/98/98
