# This file uses centimeters as units for non-parametric coordinates.

mtllib SmallRock1Unity.mtl
g default
v -1.092851 0.016323 -1.420862
v -0.692706 0.050264 -0.930507
v -0.206395 0.099358 -1.524532
v -0.748078 -0.047175 -2.186792
v -1.216967 0.301573 -1.458741
v -0.690594 0.282476 -1.020889
v -0.163923 0.364037 -1.553879
v -0.806703 0.253213 -1.961722
v -0.994442 0.032756 -1.153122
v -0.308035 0.113263 -1.239066
v -0.330138 -0.004993 -1.822463
v -1.016545 -0.085500 -1.736518
v -1.247153 0.135159 -1.396365
v -0.681787 0.240148 -0.834076
v -1.019787 0.373389 -1.134634
v -0.033937 0.205840 -1.523834
v -0.352192 0.361107 -1.186538
v -0.804375 0.118869 -2.222905
v -0.433685 0.310771 -1.860055
v -1.101279 0.323054 -1.808150
v -0.756527 0.300041 -1.476609
v -0.712848 0.009794 -1.554417
v -1.064327 0.310462 -1.065236
v -0.286155 0.314773 -1.132253
v -0.332776 0.161760 -1.993415
v -1.110948 0.157450 -1.926398
v -1.005497 0.345551 -1.462753
v -0.471421 0.335725 -1.504277
v -0.904527 -0.046769 -1.484391
v -0.462217 0.019601 -1.544842
v -1.135135 0.173889 -1.144238
v -0.945705 0.339640 -0.948727
v -0.158749 0.230434 -1.246212
v -0.411629 0.329814 -0.990250
v -0.180853 0.112178 -1.829609
v -0.509699 0.190787 -2.101314
v -1.157238 0.055634 -1.727634
v -1.043775 0.200613 -2.059790
vt 0.180085 0.815614
vt 0.218433 0.835261
vt 0.183717 0.869179
vt 0.162824 0.851967
vt 0.149106 0.910730
vt 0.130216 0.877180
vt 0.145202 0.841311
vt 0.241359 0.872747
vt 0.208271 0.890498
vt 0.231030 0.912732
vt 0.191333 0.925664
vt 0.091207 0.846480
vt 0.038514 0.875817
vt 0.076482 0.802927
vt 0.099067 0.813336
vt 0.257896 0.804034
vt 0.137357 0.791810
vt 0.119226 0.820007
vt 0.214181 0.974374
vt 0.056316 0.783654
vt 0.264086 0.936124
vt 0.279143 0.880050
vt 0.179600 0.800662
vt 0.155657 0.805842
vt 0.135145 0.828759
vt 0.235125 0.821509
vt 0.202427 0.810768
vt 0.248317 0.923120
vt 0.253890 0.872299
vt 0.259967 0.891739
vt 0.244534 0.851480
vt 0.193857 0.951901
vt 0.220130 0.950511
vt 0.133970 0.939956
vt 0.168619 0.944696
vt 0.104925 0.887534
vt 0.109356 0.856981
vt 0.119058 0.905145
vt 0.125804 0.963045
vt 0.136982 0.747990
vt 0.022282 0.802245
vt 0.035561 0.759650
vt 0.071006 0.741276
vn 0.011516 0.998388 0.055571
vn 0.015265 0.997490 0.069147
vn 0.017702 0.998651 -0.048823
vn 0.067141 0.995587 -0.065561
vn -0.004317 0.959851 -0.280476
vn -0.237867 0.937934 -0.252388
vn -0.765029 0.641972 -0.051022
vn -0.045217 0.996671 0.067841
vn -0.132723 0.990368 -0.039444
vn 0.374736 0.913634 -0.157625
vn 0.060892 0.958865 -0.277254
vn -0.226931 -0.966181 -0.122460
vn 0.013357 -0.900242 -0.435185
vn 0.139539 -0.985534 0.096188
vn 0.078884 -0.988882 0.126056
vn 0.096024 -0.863708 0.494761
vn -0.239433 -0.874992 0.420786
vn -0.495271 -0.849417 0.182200
vn 0.292641 -0.948817 -0.118774
vn 0.136427 -0.983494 0.118855
vn 0.442615 -0.882744 0.157653
vn 0.371302 -0.864410 0.339013
vn -0.722007 0.021890 0.691539
vn -0.764252 -0.270570 0.585415
vn -0.951625 -0.280368 0.125709
vn 0.084531 0.115948 0.989652
vn -0.365385 0.399996 0.840534
vn 0.999249 -0.007518 -0.038022
vn 0.723978 0.037768 0.688789
vn 0.845747 -0.085612 0.526671
vn 0.481933 0.346750 0.804677
vn 0.666799 0.072997 -0.741654
vn 0.844879 -0.203912 -0.494570
vn -0.150227 0.389106 -0.908861
vn 0.263516 0.599737 -0.755563
vn -0.850556 -0.283117 -0.443169
vn -0.852287 -0.447166 -0.271385
vn -0.512199 0.462412 -0.723759
s 1
g bolder1 bolderGroup4
usemtl blinn3SG
f 15/1/1 6/2/2 21/3/3 27/4/4
f 21/3/3 8/5/5 20/6/6 27/4/4
f 20/6/6 5/7/7 15/1/1 27/4/4
f 21/3/3 6/2/2 17/8/8 28/9/9
f 17/8/8 7/10/10 19/11/11 28/9/9
f 19/11/11 8/5/5 21/3/3 28/9/9
f 12/12/12 4/13/13 22/14/14 29/15/15
f 22/14/14 2/40/16 9/17/17 29/15/15
f 9/17/17 1/18/18 12/12/12 29/15/15
f 22/14/14 4/13/13 11/41/19 30/20/20
f 11/41/19 3/42/21 10/43/22 30/20/20
f 10/43/22 2/40/16 22/14/14 30/20/20
f 9/17/17 2/40/16 23/23/23 31/24/24
f 23/23/23 5/7/7 13/25/25 31/24/24
f 13/25/25 1/18/18 9/17/17 31/24/24
f 23/23/23 2/16/16 14/26/26 32/27/27
f 14/26/26 6/2/2 15/1/1 32/27/27
f 15/1/1 5/7/7 23/23/23 32/27/27
f 16/28/28 7/10/10 24/29/29 33/30/30
f 24/29/29 2/16/16 10/22/22 33/30/30
f 10/22/22 3/21/21 16/28/28 33/30/30
f 24/29/29 7/10/10 17/8/8 34/31/31
f 17/8/8 6/2/2 14/26/26 34/31/31
f 14/26/26 2/16/16 24/29/29 34/31/31
f 11/19/19 4/39/13 25/32/32 35/33/33
f 25/32/32 7/10/10 16/28/28 35/33/33
f 16/28/28 3/21/21 11/19/19 35/33/33
f 25/32/32 4/39/13 18/34/34 36/35/35
f 18/34/34 8/5/5 19/11/11 36/35/35
f 19/11/11 7/10/10 25/32/32 36/35/35
f 13/25/25 5/7/7 26/36/36 37/37/37
f 26/36/36 4/13/13 12/12/12 37/37/37
f 12/12/12 1/18/18 13/25/25 37/37/37
f 26/36/36 5/7/7 20/6/6 38/38/38
f 20/6/6 8/5/5 18/34/34 38/38/38
f 18/34/34 4/39/13 26/36/36 38/38/38
